<svg width="790" height="760" viewBox="0 0 790 760" fill="none" xmlns="http://www.w3.org/2000/svg">
<path d="M180 362.154C180 336.234 201.012 315.222 226.931 315.222H550.759C576.679 315.222 597.691 336.234 597.691 362.154V362.154C597.691 388.074 576.679 409.086 550.759 409.086H226.931C201.012 409.086 180 388.074 180 362.154V362.154Z" fill="#E8F6F2" fill-opacity="0.79"/>
<path d="M388.845 315.222C414.765 315.222 435.777 336.234 435.777 362.154L435.777 524.068C435.777 549.988 414.765 571 388.845 571V571C362.926 571 341.914 549.988 341.914 524.068V362.154C341.914 336.234 362.926 315.222 388.845 315.222V315.222Z" fill="#E8F6F2" fill-opacity="0.79"/>
<path d="M241.169 214.478C259.497 196.15 289.213 196.15 307.541 214.478L536.522 443.459C554.85 461.786 554.849 491.502 536.522 509.83V509.83C518.194 528.158 488.478 528.158 470.15 509.83L241.169 280.849C222.841 262.521 222.841 232.806 241.169 214.478V214.478Z" fill="#E8F6F2" fill-opacity="0.79"/>
<path d="M536.522 214.478C554.849 232.806 554.85 262.521 536.522 280.849L307.541 509.83C289.213 528.158 259.497 528.158 241.169 509.83V509.83C222.841 491.502 222.841 461.786 241.169 443.459L470.15 214.478C488.478 196.15 518.194 196.15 536.522 214.478V214.478Z" fill="#E8F6F2" fill-opacity="0.79"/>
<circle cx="388.846" cy="205.931" r="46.9316" fill="#E8F6F2" fill-opacity="0.79"/>
<path d="M25.9999 511V664C25.9999 709.839 63.1603 747 109 747H670C715.84 747 753 709.839 753 664V511" stroke="#E8F6F2" stroke-opacity="0.79" stroke-width="25" stroke-linecap="round"/>
<path d="M753 254L753 95.9995C753 50.1598 715.839 12.9995 670 12.9995L109 12.9995C63.1602 12.9995 25.9999 50.1599 25.9999 95.9995L25.9999 254" stroke="#E8F6F2" stroke-opacity="0.79" stroke-width="25" stroke-linecap="round"/>
<path d="M27.2959 415.056C24.7359 415.056 22.0479 414.864 19.2319 414.48C16.4799 414.16 13.8559 413.648 11.3599 412.944C8.86395 412.24 6.62395 411.408 4.63995 410.448C2.91195 409.616 1.69595 408.528 0.991946 407.184C0.287946 405.776 0.0319457 404.304 0.223946 402.768C0.415946 401.232 0.959946 399.888 1.85595 398.736C2.75195 397.52 3.93595 396.72 5.40795 396.336C6.87995 395.888 8.54395 396.08 10.3999 396.912C12.8319 398.064 15.5839 398.96 18.6559 399.6C21.7279 400.24 24.6079 400.56 27.2959 400.56C31.5199 400.56 34.4639 400.016 36.1279 398.928C37.8559 397.776 38.7199 396.368 38.7199 394.704C38.7199 393.232 38.1119 392.048 36.8959 391.152C35.7439 390.256 33.6639 389.488 30.6559 388.848L19.4239 386.448C13.2799 385.168 8.70395 382.928 5.69595 379.728C2.68795 376.528 1.18395 372.4 1.18395 367.344C1.18395 364.016 1.85595 361.008 3.19995 358.32C4.60795 355.568 6.55995 353.232 9.05595 351.312C11.6159 349.392 14.6239 347.92 18.0799 346.896C21.5999 345.808 25.5039 345.264 29.7919 345.264C33.1199 345.264 36.4799 345.648 39.8719 346.416C43.3279 347.12 46.3039 348.208 48.7999 349.68C50.2719 350.448 51.3279 351.504 51.9679 352.848C52.6079 354.192 52.8639 355.6 52.7359 357.072C52.6079 358.48 52.096 359.728 51.2 360.816C50.368 361.904 49.216 362.64 47.7439 363.024C46.3359 363.344 44.6399 363.088 42.6559 362.256C40.7999 361.424 38.6879 360.816 36.3199 360.432C34.0159 359.984 31.7759 359.76 29.5999 359.76C27.2319 359.76 25.2159 360.048 23.5519 360.624C21.8879 361.136 20.6079 361.904 19.7119 362.928C18.8799 363.952 18.4639 365.136 18.4639 366.48C18.4639 367.824 19.0079 368.976 20.0959 369.936C21.2479 370.832 23.3279 371.6 26.3359 372.24L37.4719 374.64C43.6799 375.984 48.32 378.192 51.3919 381.264C54.4639 384.336 55.9999 388.336 55.9999 393.264C55.9999 396.592 55.3279 399.6 53.9839 402.288C52.6399 404.976 50.7199 407.28 48.2239 409.2C45.7279 411.056 42.7199 412.496 39.1999 413.52C35.6799 414.544 31.7119 415.056 27.2959 415.056Z" fill="white"/>
<path d="M725.304 414.864C722.744 414.864 720.76 414.16 719.352 412.752C718.008 411.344 717.336 409.36 717.336 406.8V353.52C717.336 350.896 718.072 348.912 719.544 347.568C721.016 346.16 723.096 345.456 725.784 345.456C728.024 345.456 729.784 345.904 731.064 346.8C732.408 347.632 733.624 349.04 734.712 351.024L755.352 388.08H751.992L772.536 351.024C773.688 349.04 774.904 347.632 776.184 346.8C777.528 345.904 779.32 345.456 781.56 345.456C784.12 345.456 786.072 346.16 787.416 347.568C788.824 348.912 789.528 350.896 789.528 353.52V406.8C789.528 409.36 788.856 411.344 787.512 412.752C786.168 414.16 784.184 414.864 781.56 414.864C779 414.864 777.016 414.16 775.608 412.752C774.264 411.344 773.592 409.36 773.592 406.8V373.776H775.608L760.152 400.656C759.256 402.064 758.296 403.12 757.272 403.824C756.312 404.528 755 404.88 753.336 404.88C751.736 404.88 750.424 404.528 749.4 403.824C748.376 403.12 747.448 402.064 746.616 400.656L731.064 373.68H733.272V406.8C733.272 409.36 732.6 411.344 731.256 412.752C729.912 414.16 727.928 414.864 725.304 414.864Z" fill="white"/>
</svg>
